<svg id="svg" version="1.1" xmlns="http://www.w3.org/2000/svg" style="display: block;" viewBox="0 0 400 400"><path d="M0 0 C132 0 264 0 400 0 C400 132 400 264 400 400 C268 400 136 400 0 400 C0 268 0 136 0 0 Z " transform="translate(0,0)" style="fill: #FEFEFE;"/><path d="M0 0 C0.76307465 0.0012085 1.52614929 0.00241699 2.31234741 0.00366211 C41.08434103 0.16946456 73.54978681 14.66771892 102.9375 39.375 C101.46627384 42.77853022 99.56807487 44.98755749 96.94677734 47.59277344 C96.12607758 48.41332214 95.30537781 49.23387085 94.45980835 50.07928467 C93.57330597 50.95546448 92.68680359 51.83164429 91.7734375 52.734375 C90.86622955 53.63875305 89.95902161 54.5431311 89.02432251 55.47491455 C86.61865581 57.87296458 84.20704264 60.26494618 81.79412842 62.65570068 C79.33047656 65.09885171 76.87251423 67.54771206 74.4140625 69.99609375 C69.59376427 74.79433788 64.76780157 79.58682732 59.9375 84.375 C56.4220727 83.03225453 53.95682077 81.73000597 51.125 79.25 C33.58128796 65.39970102 10.94708866 60.18353174 -11.0625 62.375 C-21.21395919 63.79845184 -30.83861333 66.9130916 -40.0625 71.375 C-40.98417969 71.81585938 -41.90585938 72.25671875 -42.85546875 72.7109375 C-50.03532571 76.37681651 -56.04943563 81.03209395 -62.0625 86.375 C-63.12791016 87.31472656 -63.12791016 87.31472656 -64.21484375 88.2734375 C-77.56617399 100.80518113 -85.80702564 117.79711095 -90.0625 135.375 C-90.28808594 136.16648438 -90.51367188 136.95796875 -90.74609375 137.7734375 C-96.57495545 160.68689382 -89.22653782 185.32176748 -77.9765625 205.34375 C-74.77447408 210.41481248 -71.06798641 214.92212941 -67.0625 219.375 C-66.43730469 220.08269531 -65.81210938 220.79039062 -65.16796875 221.51953125 C-50.55669725 237.11514104 -27.69345513 247.78023362 -6.33203125 248.61328125 C17.77537404 249.10784899 38.41050603 243.8850586 57.9375 229.375 C58.58976563 228.90707031 59.24203125 228.43914062 59.9140625 227.95703125 C73.04481648 217.73422963 78.52924932 202.80387737 82.9375 187.375 C55.2175 187.375 27.4975 187.375 -1.0625 187.375 C-1.0625 167.245 -1.0625 147.115 -1.0625 126.375 C47.4475 126.375 95.9575 126.375 145.9375 126.375 C147.27356579 137.73155923 148.34779638 148.57500712 148.3125 159.9375 C148.3112915 160.66934509 148.31008301 161.40119019 148.30883789 162.1552124 C148.18514459 190.01411043 141.94649957 217.09007708 127.9375 241.375 C127.42582275 242.26638672 127.42582275 242.26638672 126.90380859 243.17578125 C115.3554305 262.92689646 99.4081656 278.53752008 79.9375 290.375 C79.35693848 290.73190918 78.77637695 291.08881836 78.17822266 291.45654297 C54.54100327 305.73275292 28.22177424 310.70942398 1 310.75 C0.21598816 310.75217529 -0.56802368 310.75435059 -1.37579346 310.7565918 C-41.31058618 310.7440373 -77.83426532 296.73760268 -107.0625 269.375 C-107.5786084 268.90126953 -108.0947168 268.42753906 -108.62646484 267.93945312 C-135.39127935 243.21781895 -154.55338928 205.21428123 -156.23388672 168.64550781 C-156.87188326 150.95034637 -156.65618758 133.59069487 -152.0625 116.375 C-151.85882813 115.60913574 -151.65515625 114.84327148 -151.4453125 114.05419922 C-146.65516949 96.81929425 -138.80239114 79.70149672 -128.0625 65.375 C-127.6701416 64.83891113 -127.2777832 64.30282227 -126.87353516 63.75048828 C-103.26589836 31.61812561 -68.31693786 8.51927711 -28.74633789 1.81298828 C-19.13617168 0.38958915 -9.70105301 -0.02866875 0 0 Z " transform="translate(204.0625,44.625)" style="fill: #34A853;"/><path d="M0 0 C0.76307465 0.0012085 1.52614929 0.00241699 2.31234741 0.00366211 C41.08434103 0.16946456 73.54978681 14.66771892 102.9375 39.375 C101.46627384 42.77853022 99.56807487 44.98755749 96.94677734 47.59277344 C96.12607758 48.41332214 95.30537781 49.23387085 94.45980835 50.07928467 C93.57330597 50.95546448 92.68680359 51.83164429 91.7734375 52.734375 C90.86622955 53.63875305 89.95902161 54.5431311 89.02432251 55.47491455 C86.61865581 57.87296458 84.20704264 60.26494618 81.79412842 62.65570068 C79.33047656 65.09885171 76.87251423 67.54771206 74.4140625 69.99609375 C69.59376427 74.79433788 64.76780157 79.58682732 59.9375 84.375 C56.4220727 83.03225453 53.95682077 81.73000597 51.125 79.25 C33.58128796 65.39970102 10.94708866 60.18353174 -11.0625 62.375 C-21.21395919 63.79845184 -30.83861333 66.9130916 -40.0625 71.375 C-40.98417969 71.81585938 -41.90585938 72.25671875 -42.85546875 72.7109375 C-50.03532571 76.37681651 -56.04943563 81.03209395 -62.0625 86.375 C-63.12791016 87.31472656 -63.12791016 87.31472656 -64.21484375 88.2734375 C-77.56617399 100.80518113 -85.80702564 117.79711095 -90.0625 135.375 C-90.28808594 136.16648438 -90.51367188 136.95796875 -90.74609375 137.7734375 C-94.45760083 152.3634998 -92.36627722 168.26868509 -88.14453125 182.4609375 C-88.0625 185.375 -88.0625 185.375 -90.1328125 187.796875 C-91.14085938 188.56515625 -92.14890625 189.3334375 -93.1875 190.125 C-93.73519043 190.55200195 -94.28288086 190.97900391 -94.84716797 191.41894531 C-96.57162045 192.75707724 -98.315869 194.06601243 -100.0625 195.375 C-101.073125 196.15875 -102.08375 196.9425 -103.125 197.75 C-105.21985257 199.37457954 -107.31963975 200.98929282 -109.4296875 202.59375 C-112.16103815 204.6756564 -114.86916909 206.78530175 -117.5703125 208.90625 C-118.35519043 209.52145508 -119.14006836 210.13666016 -119.94873047 210.77050781 C-121.47831659 211.97054253 -123.00610967 213.17286771 -124.53173828 214.37792969 C-129.54836205 218.30594497 -134.71402234 221.91311058 -140.0625 225.375 C-156.20418358 191.35118882 -161.88247274 153.17716637 -152.0625 116.375 C-151.85882813 115.60913574 -151.65515625 114.84327148 -151.4453125 114.05419922 C-146.65516949 96.81929425 -138.80239114 79.70149672 -128.0625 65.375 C-127.6701416 64.83891113 -127.2777832 64.30282227 -126.87353516 63.75048828 C-103.26589836 31.61812561 -68.31693786 8.51927711 -28.74633789 1.81298828 C-19.13617168 0.38958915 -9.70105301 -0.02866875 0 0 Z " transform="translate(204.0625,44.625)" style="fill: #E94235;"/><path d="M0 0 C48.51 0 97.02 0 147 0 C148.33606579 11.35655923 149.41029638 22.20000712 149.375 33.5625 C149.3737915 34.29434509 149.37258301 35.02619019 149.37133789 35.7802124 C149.24764459 63.63911043 143.00899957 90.71507708 129 115 C128.65888184 115.59425781 128.31776367 116.18851562 127.96630859 116.80078125 C121.45719804 127.93327029 113.39990022 139.21905276 103 147 C102.19820313 146.36835938 101.39640625 145.73671875 100.5703125 145.0859375 C91.53782938 137.97643815 82.47100744 130.91181615 73.39355469 123.85986328 C69.21947937 120.61648244 65.04736128 117.3705853 60.875 114.125 C59.35157088 112.94009339 57.82813418 111.75519653 56.3046875 110.5703125 C55.203125 109.71354167 54.1015625 108.85677083 53 108 C58 104 58 104 59.921875 102.5 C73.52035581 91.34227216 79.25017039 77.62440362 84 61 C56.28 61 28.56 61 0 61 C0 40.87 0 20.74 0 0 Z " transform="translate(203,171)" style="fill: #4285F3;"/><path d="M0 0 C2.65965367 1.26325386 5.00993639 2.6314606 7.36328125 4.3984375 C7.99516357 4.87168457 8.6270459 5.34493164 9.27807617 5.83251953 C9.94943604 6.34153809 10.6207959 6.85055664 11.3125 7.375 C12.01673096 7.90593262 12.72096191 8.43686523 13.4465332 8.98388672 C18.88469703 13.10486715 24.22831973 17.33567681 29.53955078 21.6184082 C36.91191399 27.56003479 44.41417344 33.33326083 52 39 C51.71125 40.21171875 51.4225 41.4234375 51.125 42.671875 C46.94782124 61.12433443 46.49181653 77.84483004 51.91796875 96.0859375 C52 99 52 99 49.9296875 101.421875 C48.92164062 102.19015625 47.91359375 102.9584375 46.875 103.75 C46.32730957 104.17700195 45.77961914 104.60400391 45.21533203 105.04394531 C43.49087955 106.38207724 41.746631 107.69101243 40 109 C38.989375 109.78375 37.97875 110.5675 36.9375 111.375 C34.84264743 112.99957954 32.74286025 114.61429282 30.6328125 116.21875 C27.90146185 118.3006564 25.19333091 120.41030175 22.4921875 122.53125 C21.70730957 123.14645508 20.92243164 123.76166016 20.11376953 124.39550781 C18.58418341 125.59554253 17.05639033 126.79786771 15.53076172 128.00292969 C10.51413795 131.93094497 5.34847766 135.53811058 0 139 C-18.12583804 100.79394251 -22.18677759 58.49286446 -8.36621094 18.16064453 C-6.07582749 11.8468884 -3.25172103 5.88077207 0 0 Z " transform="translate(64,131)" style="fill: #F9BB06;"/></svg>